<?xml version="1.0" standalone="no"?><svg xmlns="http://www.w3.org/2000/svg" viewBox="0 0 1440 320"><path fill="#0099ff" fill-opacity="1" d="M0,32L20,48C40,64,80,96,120,133.3C160,171,200,213,240,224C280,235,320,213,360,208C400,203,440,213,480,197.3C520,181,560,139,600,106.7C640,75,680,53,720,48C760,43,800,53,840,85.3C880,117,920,171,960,202.7C1000,235,1040,245,1080,234.7C1120,224,1160,192,1200,165.3C1240,139,1280,117,1320,101.3C1360,85,1400,75,1420,69.3L1440,64L1440,320L1420,320C1400,320,1360,320,1320,320C1280,320,1240,320,1200,320C1160,320,1120,320,1080,320C1040,320,1000,320,960,320C920,320,880,320,840,320C800,320,760,320,720,320C680,320,640,320,600,320C560,320,520,320,480,320C440,320,400,320,360,320C320,320,280,320,240,320C200,320,160,320,120,320C80,320,40,320,20,320L0,320Z"></path></svg>